<mxfile host="app.diagrams.net" agent="Mozilla/5.0 (X11; Linux x86_64; rv:137.0) Gecko/20100101 Firefox/137.0" version="26.2.13">
  <diagram name="Page-1" id="-PvMx88pho-dIO8fkLno">
    <mxGraphModel dx="1182" dy="653" grid="1" gridSize="10" guides="1" tooltips="1" connect="1" arrows="1" fold="1" page="1" pageScale="1" pageWidth="850" pageHeight="1100" math="0" shadow="0">
      <root>
        <mxCell id="0" />
        <mxCell id="1" parent="0" />
        <mxCell id="Y8aK6llZBBkUhXE6LjP1-12" style="edgeStyle=orthogonalEdgeStyle;rounded=0;orthogonalLoop=1;jettySize=auto;html=1;exitX=0.5;exitY=0;exitDx=0;exitDy=0;entryX=0;entryY=0.5;entryDx=0;entryDy=0;" edge="1" parent="1" source="Y8aK6llZBBkUhXE6LjP1-2" target="Y8aK6llZBBkUhXE6LjP1-3">
          <mxGeometry relative="1" as="geometry" />
        </mxCell>
        <mxCell id="Y8aK6llZBBkUhXE6LjP1-24" value="&lt;span style=&quot;&quot;&gt;aHR0cHM6Ly9mY3NjLmZyL3NocmltcGVk&lt;/span&gt;" style="edgeLabel;html=1;align=center;verticalAlign=middle;resizable=0;points=[];fontColor=#747474;" vertex="1" connectable="0" parent="Y8aK6llZBBkUhXE6LjP1-12">
          <mxGeometry x="-0.4624" relative="1" as="geometry">
            <mxPoint as="offset" />
          </mxGeometry>
        </mxCell>
        <mxCell id="Y8aK6llZBBkUhXE6LjP1-2" value="0:Interface" style="rounded=0;whiteSpace=wrap;html=1;" vertex="1" parent="1">
          <mxGeometry x="160" y="290" width="80" height="20" as="geometry" />
        </mxCell>
        <mxCell id="Y8aK6llZBBkUhXE6LjP1-13" style="edgeStyle=orthogonalEdgeStyle;rounded=0;orthogonalLoop=1;jettySize=auto;html=1;exitX=1;exitY=0.5;exitDx=0;exitDy=0;entryX=0;entryY=0.5;entryDx=0;entryDy=0;" edge="1" parent="1" source="Y8aK6llZBBkUhXE6LjP1-3" target="Y8aK6llZBBkUhXE6LjP1-5">
          <mxGeometry relative="1" as="geometry" />
        </mxCell>
        <mxCell id="Y8aK6llZBBkUhXE6LjP1-25" value="https://fcsc.fr/shrimped" style="edgeLabel;html=1;align=center;verticalAlign=bottom;resizable=0;points=[];fontColor=#747474;" vertex="1" connectable="0" parent="Y8aK6llZBBkUhXE6LjP1-13">
          <mxGeometry x="-0.275" y="1" relative="1" as="geometry">
            <mxPoint as="offset" />
          </mxGeometry>
        </mxCell>
        <mxCell id="Y8aK6llZBBkUhXE6LjP1-3" value="1:Decoder" style="rounded=0;whiteSpace=wrap;html=1;" vertex="1" parent="1">
          <mxGeometry x="280" y="200" width="80" height="20" as="geometry" />
        </mxCell>
        <mxCell id="Y8aK6llZBBkUhXE6LjP1-23" style="edgeStyle=orthogonalEdgeStyle;rounded=0;orthogonalLoop=1;jettySize=auto;html=1;exitX=0;exitY=0.5;exitDx=0;exitDy=0;entryX=0.5;entryY=1;entryDx=0;entryDy=0;" edge="1" parent="1" source="Y8aK6llZBBkUhXE6LjP1-4" target="Y8aK6llZBBkUhXE6LjP1-2">
          <mxGeometry relative="1" as="geometry" />
        </mxCell>
        <mxCell id="Y8aK6llZBBkUhXE6LjP1-31" value="Niu3TcodQEG+tr2IMGgHoi03sVTUVwoK2NXO6x4OdY0=" style="edgeLabel;html=1;align=center;verticalAlign=middle;resizable=0;points=[];fontColor=#747474;" vertex="1" connectable="0" parent="Y8aK6llZBBkUhXE6LjP1-23">
          <mxGeometry x="0.2662" y="1" relative="1" as="geometry">
            <mxPoint x="1" y="-9" as="offset" />
          </mxGeometry>
        </mxCell>
        <mxCell id="Y8aK6llZBBkUhXE6LjP1-4" value="4:Encoder" style="rounded=0;whiteSpace=wrap;html=1;" vertex="1" parent="1">
          <mxGeometry x="280" y="380" width="80" height="20" as="geometry" />
        </mxCell>
        <mxCell id="Y8aK6llZBBkUhXE6LjP1-14" style="edgeStyle=orthogonalEdgeStyle;rounded=0;orthogonalLoop=1;jettySize=auto;html=1;exitX=0.25;exitY=1;exitDx=0;exitDy=0;entryX=0.5;entryY=0;entryDx=0;entryDy=0;verticalAlign=bottom;labelPosition=center;verticalLabelPosition=top;align=center;" edge="1" parent="1" source="Y8aK6llZBBkUhXE6LjP1-5" target="Y8aK6llZBBkUhXE6LjP1-7">
          <mxGeometry relative="1" as="geometry" />
        </mxCell>
        <mxCell id="Y8aK6llZBBkUhXE6LjP1-26" value="https://fcsc.fr/" style="edgeLabel;html=1;align=center;verticalAlign=middle;resizable=0;points=[];fontColor=#747474;" vertex="1" connectable="0" parent="Y8aK6llZBBkUhXE6LjP1-14">
          <mxGeometry x="0.0554" y="-2" relative="1" as="geometry">
            <mxPoint y="-3" as="offset" />
          </mxGeometry>
        </mxCell>
        <mxCell id="Y8aK6llZBBkUhXE6LjP1-15" style="edgeStyle=orthogonalEdgeStyle;rounded=0;orthogonalLoop=1;jettySize=auto;html=1;exitX=0.5;exitY=1;exitDx=0;exitDy=0;entryX=0.5;entryY=0;entryDx=0;entryDy=0;" edge="1" parent="1" source="Y8aK6llZBBkUhXE6LjP1-5" target="Y8aK6llZBBkUhXE6LjP1-8">
          <mxGeometry relative="1" as="geometry" />
        </mxCell>
        <mxCell id="Y8aK6llZBBkUhXE6LjP1-16" style="edgeStyle=orthogonalEdgeStyle;rounded=0;orthogonalLoop=1;jettySize=auto;html=1;exitX=0.75;exitY=1;exitDx=0;exitDy=0;entryX=0.5;entryY=0;entryDx=0;entryDy=0;" edge="1" parent="1" source="Y8aK6llZBBkUhXE6LjP1-5" target="Y8aK6llZBBkUhXE6LjP1-9">
          <mxGeometry relative="1" as="geometry" />
        </mxCell>
        <mxCell id="Y8aK6llZBBkUhXE6LjP1-27" value="shrimped\0\0...\0" style="edgeLabel;html=1;align=center;verticalAlign=middle;resizable=0;points=[];fontColor=#747474;" vertex="1" connectable="0" parent="Y8aK6llZBBkUhXE6LjP1-16">
          <mxGeometry x="-0.0391" y="1" relative="1" as="geometry">
            <mxPoint y="-4" as="offset" />
          </mxGeometry>
        </mxCell>
        <mxCell id="Y8aK6llZBBkUhXE6LjP1-5" value="2:Splitter" style="rounded=0;whiteSpace=wrap;html=1;" vertex="1" parent="1">
          <mxGeometry x="520" y="200" width="80" height="20" as="geometry" />
        </mxCell>
        <mxCell id="Y8aK6llZBBkUhXE6LjP1-22" style="edgeStyle=orthogonalEdgeStyle;rounded=0;orthogonalLoop=1;jettySize=auto;html=1;exitX=0;exitY=0.5;exitDx=0;exitDy=0;entryX=1;entryY=0.5;entryDx=0;entryDy=0;" edge="1" parent="1" source="Y8aK6llZBBkUhXE6LjP1-6" target="Y8aK6llZBBkUhXE6LjP1-4">
          <mxGeometry relative="1" as="geometry" />
        </mxCell>
        <mxCell id="Y8aK6llZBBkUhXE6LjP1-30" value="\x36\x2b...\x8d" style="edgeLabel;html=1;align=center;verticalAlign=middle;resizable=0;points=[];fontColor=#747474;" vertex="1" connectable="0" parent="Y8aK6llZBBkUhXE6LjP1-22">
          <mxGeometry x="-0.1179" y="1" relative="1" as="geometry">
            <mxPoint y="-11" as="offset" />
          </mxGeometry>
        </mxCell>
        <mxCell id="Y8aK6llZBBkUhXE6LjP1-6" value="3:Joiner" style="rounded=0;whiteSpace=wrap;html=1;dashed=1;dashPattern=8 8;" vertex="1" parent="1">
          <mxGeometry x="520" y="380" width="80" height="20" as="geometry" />
        </mxCell>
        <mxCell id="Y8aK6llZBBkUhXE6LjP1-18" style="edgeStyle=orthogonalEdgeStyle;rounded=0;orthogonalLoop=1;jettySize=auto;html=1;exitX=0.5;exitY=1;exitDx=0;exitDy=0;entryX=0.25;entryY=0;entryDx=0;entryDy=0;" edge="1" parent="1" source="Y8aK6llZBBkUhXE6LjP1-7" target="Y8aK6llZBBkUhXE6LjP1-6">
          <mxGeometry relative="1" as="geometry" />
        </mxCell>
        <mxCell id="Y8aK6llZBBkUhXE6LjP1-28" value="\x36\x2b...\xa2" style="edgeLabel;html=1;align=center;verticalAlign=middle;resizable=0;points=[];fontColor=#747474;" vertex="1" connectable="0" parent="Y8aK6llZBBkUhXE6LjP1-18">
          <mxGeometry x="-0.1982" y="2" relative="1" as="geometry">
            <mxPoint x="11" y="-3" as="offset" />
          </mxGeometry>
        </mxCell>
        <mxCell id="Y8aK6llZBBkUhXE6LjP1-7" value="5:Encryptor 0" style="rounded=0;whiteSpace=wrap;html=1;dashed=1;dashPattern=12 12;" vertex="1" parent="1">
          <mxGeometry x="410" y="290" width="80" height="20" as="geometry" />
        </mxCell>
        <mxCell id="Y8aK6llZBBkUhXE6LjP1-19" style="edgeStyle=orthogonalEdgeStyle;rounded=0;orthogonalLoop=1;jettySize=auto;html=1;exitX=0.5;exitY=1;exitDx=0;exitDy=0;entryX=0.5;entryY=0;entryDx=0;entryDy=0;" edge="1" parent="1" source="Y8aK6llZBBkUhXE6LjP1-8" target="Y8aK6llZBBkUhXE6LjP1-6">
          <mxGeometry relative="1" as="geometry" />
        </mxCell>
        <mxCell id="Y8aK6llZBBkUhXE6LjP1-8" value="6:Encryptor 1" style="rounded=0;whiteSpace=wrap;html=1;dashed=1;dashPattern=12 12;" vertex="1" parent="1">
          <mxGeometry x="510" y="290" width="80" height="20" as="geometry" />
        </mxCell>
        <mxCell id="Y8aK6llZBBkUhXE6LjP1-20" style="edgeStyle=orthogonalEdgeStyle;rounded=0;orthogonalLoop=1;jettySize=auto;html=1;exitX=0.5;exitY=1;exitDx=0;exitDy=0;entryX=0.75;entryY=0;entryDx=0;entryDy=0;" edge="1" parent="1" source="Y8aK6llZBBkUhXE6LjP1-9" target="Y8aK6llZBBkUhXE6LjP1-6">
          <mxGeometry relative="1" as="geometry" />
        </mxCell>
        <mxCell id="Y8aK6llZBBkUhXE6LjP1-29" value="\x2d\x37...\x8d" style="edgeLabel;html=1;align=center;verticalAlign=middle;resizable=0;points=[];fontColor=#747474;" vertex="1" connectable="0" parent="Y8aK6llZBBkUhXE6LjP1-20">
          <mxGeometry x="-0.2617" relative="1" as="geometry">
            <mxPoint x="-15" y="-5" as="offset" />
          </mxGeometry>
        </mxCell>
        <mxCell id="Y8aK6llZBBkUhXE6LjP1-9" value="(5+n):Encryptor n" style="rounded=0;whiteSpace=wrap;html=1;dashed=1;dashPattern=12 12;" vertex="1" parent="1">
          <mxGeometry x="650" y="290" width="100" height="20" as="geometry" />
        </mxCell>
        <mxCell id="Y8aK6llZBBkUhXE6LjP1-17" value="..." style="text;html=1;align=center;verticalAlign=middle;whiteSpace=wrap;rounded=0;" vertex="1" parent="1">
          <mxGeometry x="590" y="285" width="60" height="30" as="geometry" />
        </mxCell>
      </root>
    </mxGraphModel>
  </diagram>
</mxfile>
